# AST/ASF file generated using VICON BodyLanguage
# -----------------------------------------------
:version 1.10
:name VICON
:units
  mass 1.0
  length 0.45
  angle deg
:documentation
   .ast/.asf automatically generated from VICON data using
   VICON BodyBuilder and BodyLanguage model FoxedUp or BRILLIANT.MOD
:root
   order TX TY TZ RX RY RZ
   axis XYZ
   position 0 0 0  
   orientation 0 0 0 
:bonedata
  begin
     id 1 
     name lhipjoint
     direction 0.440178 -0.822639 0.359871 
     length 2.53113 
     axis 0 0 0  XYZ
  end
  begin
     id 2 
     name lfemur
     direction 0.34202 -0.939693 0  
     length 7.88132  
     axis 0 0 20  XYZ
    dof rx ry rz
    limits (-160.0 20.0)
           (-70.0 70.0)
           (-60.0 70.0)
  end
  begin
     id 3 
     name ltibia
     direction 0.34202 -0.939693 0   
     length 8.43783   
     axis 0 0 20   XYZ
    dof rx
    limits (-10.0 170.0)
  end
  begin
     id 4 
     name lfoot
     direction 0.0886351 -0.243523 0.965837   
     length 2.63414   
     axis -90 7.62852e-016 20   XYZ
    dof rx rz
    limits (-45.0 90.0)
           (-70.0 20.0)
  end
  begin
     id 5 
     name ltoes
     direction 1.53703e-011 -4.21717e-011 1   
     length 1.31427   
     axis -90 7.62852e-016 20   XYZ
    dof rx
    limits (-90.0 20.0)
  end
  begin
     id 6 
     name rhipjoint
     direction -0.399779 -0.839773 0.367367   
     length 2.47948  
     axis 0 0 0  XYZ 
  end
  begin
     id 7 
     name rfemur
     direction -0.34202 -0.939693 0   
     length 7.74806   
     axis 0 0 -20   XYZ
    dof rx ry rz
    limits (-160.0 20.0)
           (-70.0 70.0)
           (-70.0 60.0)
  end
  begin
     id 8 
     name rtibia
     direction -0.34202 -0.939693 0   
     length 8.74432   
     axis 0 0 -20   XYZ
    dof rx
    limits (-10.0 170.0)
 end
 begin
     id 9 
     name rfoot
     direction -0.108514 -0.298139 0.948334   
     length 2.66102  
     axis -90 -7.62852e-016 -20   XYZ
    dof rx rz
    limits (-45.0 90.0)
           (-20.0 70.0)
  end
  begin
     id 10 
     name rtoes
     direction -1.53392e-011 -4.22077e-011 1   
     length 1.31983   
     axis -90 -7.62852e-016 -20   XYZ
    dof rx
    limits (-90.0 20.0)
  end
  begin
     id 11 
     name lowerback
     direction 0.0113257 0.999866 0.0118602   
     length 2.58694   
     axis 0 0 0   XYZ
    dof rx ry rz
    limits (-20.0 45.0)
           (-30.0 30.0)
           (-30.0 30.0)
  end
  begin
     id 12 
     name upperback
     direction -0.0164747 0.995193 -0.0965375   
     length 2.52368   
     axis 0 0 0   XYZ
    dof rx ry rz
    limits (-20.0 45.0)
           (-30.0 30.0)
           (-30.0 30.0)
  end
  begin
     id 13 
     name thorax
     direction -0.0194301 0.99433 -0.104552   
     length 2.56099   
     axis 0 0 0   XYZ
    dof rx ry rz
    limits (-20.0 45.0)
           (-30.0 30.0)
           (-30.0 30.0)
  end
  begin
     id 14 
     name lowerneck
     direction 0.0148543 0.995587 -0.092657   
     length 1.71582   
     axis 0 0 0   XYZ
    dof rx ry rz
    limits (-20.0 45.0)
           (-30.0 30.0)
           (-30.0 30.0)
  end
  begin
     id 15 
     name upperneck
     direction -0.0135467 0.993656 -0.111639   
     length 1.68937   
     axis 0 0 0   XYZ
    dof rx ry rz
    limits (-20.0 45.0)
           (-30.0 30.0)
           (-30.0 30.0)
  end
  begin
     id 16
     name head
     direction -0.00615349 0.999547 -0.029448  
     length 1.7462  
     axis 0 0 0   XYZ
    dof rx ry rz
    limits (-20.0 45.0)
           (-30.0 30.0)
           (-30.0 30.0)
  end
  begin
     id 17 
     name lclavicle
     direction 0.988267 0.149885 0.0293713  
     length 4.47222  
     axis 0 0 0   XYZ
    dof ry rz
    limits (-20.0 10.0)
           (0.0 20.0)
  end
  begin
     id 18 
     name lhumerus
     direction 1 -4.48986e-011 -1.14833e-027   
     length 5.37148   
     axis 180 -30 -90   XYZ
    dof rx ry rz
    limits (-60.0 90.0)
           (-90.0 90.0)
           (-90.0 90.0)
  end
  begin
     id 19
     name lradius
     direction 0.999998 0.00170963 -0.000987055   
     length 3.94212   
     axis 180 -30 -90   XYZ
    dof rx
    limits (-10.0 170.0)
  end
  begin
     id 20
     name lwrist
     direction 0.999998 7.53149e-005 -0.00194706   
     length 1.97106   
     axis 4.65056e-015 90 90   XYZ
    dof ry
    limits (-180.0 0.0)
 end
  begin
     id 21 
     name lhand
     direction 1 -4.48973e-011 -1.31746e-026   
     length 1.17917   
     axis 8.4065e-015 90 90   XYZ
    dof rx rz
    limits (-90.0 90.0)
           (-45.0 45.0)
  end
  begin
     id 22 
     name lfingers
     direction 1 -4.49107e-011 -2.63492e-026   
     length 0.950679   
     axis 1.6813e-014 90 90   XYZ
    dof rx
    limits (0.0 90.0)
  end
  begin
     id 23
     name lthumb
     direction 0.707107 -6.35048e-011 0.707107   
     length 1.36499   
     axis -90 45 2.85299e-015   XYZ
    dof rx rz
    limits (-45.0 45.0)
           (-45.0 45.0)
  end
  begin
     id 24 
     name rclavicle
     direction -0.996699 0.0642895 -0.0495725   
     length 4.62611  
     axis 0 0 0   XYZ 
    dof ry rz
    limits (-10.0 20.0)
           (-20.0 0.0)
  end
  begin
     id 25 
     name rhumerus
     direction -1 -4.48919e-011 -2.41059e-027  
     length 5.4981   
     axis 180 30 90   XYZ
    dof rx ry rz
    limits (-90.0 60.0)
           (-90.0 90.0)
           (-90.0 90.0)
  end
  begin
     id 26 
     name rradius
     direction -0.999999 0.00118101 -0.000681858   
     length 3.48381   
     axis 180 30 90   XYZ
    dof rx
    limits (-10.0 170.0)
  end
  begin
     id 27 
     name rwrist
     direction -0.999999 0.000321823 -0.00132288   
     length 1.7419   
     axis 4.65056e-015 -90 -90   XYZ
    dof ry
    limits (-180.0 0.0)
  end
  begin
     id 28
     name rhand
     direction -1 -4.49022e-011 -1.31746e-026   
     length 1.34932   
     axis 8.4065e-015 -90 -90   XYZ
    dof rx rz
    limits (-90.0 90.0)
           (-45.0 45.0)
  end
  begin
     id 29
     name rfingers
     direction -1 -4.49178e-011 -2.63492e-026   
     length 1.08785   
     axis 1.6813e-014 -90 -90   XYZ
    dof rx
    limits (0.0 90.0)
  end
  begin
     id 30
     name rthumb
     direction -0.707107 -6.34713e-011 0.707107   
     length 1.56195   
     axis -90 -45 -2.85299e-015   XYZ
    dof rx rz
    limits (-45.0 45.0)
           (-45.0 45.0)
  end
:hierarchy
  begin
    root lhipjoint rhipjoint lowerback
    lhipjoint lfemur
    lfemur ltibia
    ltibia lfoot
    lfoot ltoes
    rhipjoint rfemur
    rfemur rtibia
    rtibia rfoot
    rfoot rtoes
    lowerback upperback
    upperback thorax
    thorax lowerneck lclavicle rclavicle
    lowerneck upperneck
    upperneck head
    lclavicle lhumerus
    lhumerus lradius
    lradius lwrist
    lwrist lhand lthumb
    lhand lfingers
    rclavicle rhumerus
    rhumerus rradius
    rradius rwrist
    rwrist rhand rthumb
    rhand rfingers
  end

#!OML:ASF X:\für Bonn\!DataBase\2005_08_10_Bjorn_Final\c3d\bjorn.ASF
:FULLY-SPECIFIED
:DEGREES
16
root 0.350824 19.5225 5.06753 -164.308 6.04608 176.286
lowerback 3.26641 -0.0601649 0.256749
upperback 15.3433 2.48654 0.779175
thorax 15.0076 2.15199 1.22714
lowerneck -12.0769 9.07 1.66876
upperneck -18.4184 8.06616 -14.412
head -2.80561 3.05488 -4.52941
rclavicle 1.59028e-014 4.45278e-014
rhumerus -1405.3 -37.2075 1332.82
rradius 3.59258
rwrist 47.975
rhand -25.388 1.18654
rfingers 7.12502
rthumb 1.13682 -28.7902
lclavicle 1.59028e-014 4.45278e-014
lhumerus -1537.58 129.43 -1448.73
lradius 7.13315
lwrist -111.249
lhand -22.9579 2.48751
lfingers 7.12502
lthumb 3.48373 32.4388
rfemur -34.1943 -12.8004 14.6029
rtibia 27.9525
rfoot -6.63194 12.9154
rtoes -15.6299
lfemur -29.8822 17.1711 -26.5218
ltibia 25.1186
lfoot -6.88197 -9.70245
ltoes -2.443
17
root 0.348076 19.5266 5.10186 -163.983 5.9285 176.227
lowerback 3.34638 -0.109121 0.243551
upperback 15.4377 2.46743 0.727734
thorax 15.0801 2.15876 1.18055
lowerneck -12.0325 9.27587 1.57173
upperneck -19.0624 8.16982 -14.6794
head -2.98894 3.09017 -4.61177
rclavicle -1.19271e-014 1.59028e-015
rhumerus -1403.97 -34.1311 1332.78
rradius 3.68093
rwrist 46.9582
rhand -25.6371 1.61806
rfingers 7.12502
rthumb 0.896275 -28.3598
lclavicle -1.19271e-014 1.59028e-015
lhumerus -1540.84 132.234 -1452.82
lradius 6.75437
lwrist -110.043
lhand -22.2687 2.51385
lfingers 7.12502
lthumb 4.14929 32.4532
rfemur -34.6092 -12.7133 14.5771
rtibia 27.8826
rfoot -6.51783 12.6161
rtoes -15.8756
lfemur -30.4961 17.7125 -26.9353
ltibia 25.0949
lfoot -6.48622 -10.3538
ltoes -2.18487
18
root 0.346239 19.5275 5.13052 -163.696 5.74305 176.163
lowerback 3.40055 -0.164535 0.207051
upperback 15.4646 2.41 0.722861
thorax 15.0796 2.13214 1.19002
lowerneck -11.7195 9.46456 1.52823
upperneck -19.7078 8.25847 -15.0244
head -3.20712 3.14114 -4.73728
rclavicle -2.06736e-014 1.66979e-014
rhumerus -1402.87 -31.1428 1333.1
rradius 3.84912
rwrist 46.1474
rhand -25.7568 2.18218
rfingers 7.12502
rthumb 0.780683 -27.7961
lclavicle -2.06736e-014 1.66979e-014
lhumerus -1543.68 134.825 -1456.49
lradius 6.6155
lwrist -108.962
lhand -22.0749 2.48079
lfingers 7.12502
lthumb 4.33643 32.4164
rfemur -34.9646 -12.689 14.5537
rtibia 27.8271
rfoot -6.43415 12.3233
rtoes -15.9374
lfemur -31.0435 18.199 -27.3295
ltibia 25.0737
lfoot -6.08551 -11.0019
ltoes -1.97173
19
root 0.346109 19.5298 5.15554 -163.448 5.55037 176.07
lowerback 3.43377 -0.180589 0.174532
upperback 15.4165 2.3825 0.682889
thorax 14.998 2.11504 1.15536
lowerneck -11.2413 9.60635 1.62285
upperneck -20.1968 8.34353 -15.3067
head -3.39927 3.20777 -4.86871
rclavicle -3.97569e-015 -1.59028e-014
rhumerus -1401.98 -28.412 1333.65
rradius 4.24176
rwrist 45.4844
rhand -25.3584 2.64654
rfingers 7.12502
rthumb 1.16538 -27.33
lclavicle -3.97569e-015 -1.59028e-014
lhumerus -1546.25 137.383 -1460.06
lradius 6.46094
lwrist -107.954
lhand -22.6753 2.36346
lfingers 7.12502
lthumb 3.75664 32.3101
rfemur -35.2654 -12.6766 14.4962
rtibia 27.7803
rfoot -6.37949 12.0292
rtoes -16.0486
lfemur -31.5234 18.5639 -27.6923
ltibia 25.0624
lfoot -5.73552 -11.5564
ltoes -1.64252
20
root 0.346509 19.5314 5.17627 -163.258 5.3469 175.997
lowerback 3.41427 -0.218954 0.123007
upperback 15.396 2.32758 0.684147
thorax 14.9832 2.08017 1.17949
lowerneck -11.0067 9.74275 1.5147
upperneck -20.4302 8.5017 -15.4087
head -3.49413 3.31033 -4.89444
rclavicle -3.26007e-014 -8.74653e-015
rhumerus -1401.1 -25.6984 1334.44
rradius 4.66042
rwrist 45.1714
rhand -25.0138 3.13825
rfingers 7.12502
rthumb 1.49822 -26.8362
lclavicle -3.26007e-014 -8.74653e-015
lhumerus -1548.35 139.91 -1463.29
lradius 6.42379
lwrist -107.03
lhand -23.2609 2.10869
lfingers 7.12502
lthumb 3.19116 32.0646
rfemur -35.4831 -12.6701 14.4412
rtibia 27.7377
rfoot -6.30731 11.7884
rtoes -15.9565
lfemur -31.8968 18.7784 -27.9615
ltibia 25.0649
lfoot -5.44513 -11.931
ltoes -1.41023
21
root 0.347479 19.5317 5.19491 -163.126 5.14496 175.952
lowerback 3.38507 -0.253968 0.110148
upperback 15.3854 2.28076 0.669565
thorax 14.9888 2.0568 1.16684
lowerneck -11.1032 9.89097 1.40507
upperneck -20.2828 8.76997 -15.3773
head -3.4215 3.45449 -4.85149
rclavicle 3.57812e-014 2.78299e-014
rhumerus -1400.24 -23.1093 1335.34
rradius 5.16996
rwrist 45.0331
rhand -24.7277 3.71531
rfingers 7.12502
rthumb 1.77457 -26.2571
lclavicle 3.57812e-014 2.78299e-014
lhumerus -1550.14 142.472 -1466.37
lradius 6.45774
lwrist -105.884
lhand -23.4442 1.79776
lfingers 7.12502
lthumb 3.01415 31.7562
rfemur -35.6279 -12.6465 14.4077
rtibia 27.6896
rfoot -6.28057 11.5116
rtoes -16.0573
lfemur -32.1843 18.9472 -28.1553
ltibia 25.0782
lfoot -5.1822 -12.2248
ltoes -1.13996
22
root 0.348296 19.5324 5.21352 -163.089 4.92835 175.97
lowerback 3.42871 -0.315599 0.12252
upperback 15.3921 2.20092 0.701471
thorax 14.969 2.02091 1.18713
lowerneck -11.4811 10.0548 1.36874
upperneck -19.849 9.07183 -15.5485
head -3.19735 3.5989 -4.86064
rclavicle 2.46493e-014 -1.43125e-014
rhumerus -1399.38 -20.5196 1336.44
rradius 5.84857
rwrist 45.1117
rhand -24.7604 4.25501
rfingers 7.12502
rthumb 1.74293 -25.7176
lclavicle 2.46493e-014 -1.43125e-014
lhumerus -1551.52 145.05 -1469.18
lradius 6.55494
lwrist -105.083
lhand -23.5016 1.50938
lfingers 7.12502
lthumb 2.95865 31.4686
rfemur -35.6505 -12.6109 14.4217
rtibia 27.6334
rfoot -6.26047 11.2434
rtoes -16.1936
lfemur -32.3429 18.9982 -28.1874
ltibia 25.1089
lfoot -4.88478 -12.3908
ltoes -0.476895
23
root 0.348745 19.5327 5.22979 -163.114 4.71041 176.022
lowerback 3.4893 -0.374117 0.184476
upperback 15.4087 2.12888 0.727318
thorax 14.9523 1.99772 1.17433
lowerneck -11.8508 10.2355 1.36593
upperneck -19.5127 9.36454 -15.7586
head -3.00035 3.73201 -4.8894
rclavicle 1.35174e-014 3.97569e-015
rhumerus -1398.39 -17.9835 1337.58
rradius 6.305
rwrist 44.7014
rhand -25.1101 5.13029
rfingers 7.12502
rthumb 1.40524 -24.8448
lclavicle 1.35174e-014 3.97569e-015
lhumerus -1552.56 147.723 -1471.89
lradius 6.45888
lwrist -104.488
lhand -23.6587 1.36325
lfingers 7.12502
lthumb 2.80697 31.3245
rfemur -35.5874 -12.5636 14.4524
rtibia 27.5695
rfoot -6.25231 10.9991
rtoes -16.1505
lfemur -32.4069 18.957 -28.1265
ltibia 25.1576
lfoot -4.66081 -12.453
ltoes -0.00786521
24
root 0.350416 19.5317 5.24361 -163.205 4.49648 176.099
lowerback 3.58764 -0.426742 0.248003
upperback 15.4019 2.05749 0.76153
thorax 14.8813 1.97287 1.16646
lowerneck -12.098 10.4161 1.39361
upperneck -19.294 9.63285 -15.978
head -2.85696 3.85615 -4.93389
rclavicle 3.97569e-015 -1.82882e-014
rhumerus -1397.36 -15.5115 1338.83
rradius 6.66148
rwrist 44.2913
rhand -25.4708 5.91786
rfingers 7.12502
rthumb 1.05687 -24.0593
lclavicle 3.97569e-015 -1.82882e-014
lhumerus -1553.35 150.385 -1474.51
lradius 6.2844
lwrist -103.798
lhand -23.5925 1.23986
lfingers 7.12502
lthumb 2.87086 31.2003
rfemur -35.4422 -12.5016 14.4953
rtibia 27.5086
rfoot -6.24225 10.7412
rtoes -16.226
lfemur -32.3539 18.7706 -27.948
ltibia 25.2132
lfoot -4.4664 -12.3113
ltoes 0.691813
25
root 0.351683 19.5312 5.25426 -163.38 4.27252 176.171
lowerback 3.73813 -0.476968 0.318122
upperback 15.3711 1.98394 0.795463
thorax 14.7468 1.94691 1.15042
lowerneck -12.2103 10.5715 1.3769
upperneck -19.1425 9.87439 -16.1125
head -2.76551 3.97837 -4.95318
rclavicle -2.06736e-014 -4.6118e-014
rhumerus -1396.41 -13.1916 1340.27
rradius 7.22425
rwrist 44.2194
rhand -25.5067 6.54865
rfingers 7.12502
rthumb 1.02221 -23.4286
lclavicle -2.06736e-014 -4.6118e-014
lhumerus -1554.02 152.904 -1477.11
lradius 6.10713
lwrist -102.822
lhand -24.2394 1.04364
lfingers 7.12502
lthumb 2.24617 31.0116
rfemur -35.1976 -12.4511 14.5114
rtibia 27.4587
rfoot -6.27148 10.5154
rtoes -16.0952
lfemur -32.1968 18.6468 -27.7578
ltibia 25.2673
lfoot -4.32007 -12.2706
ltoes 1.13769
26
root 0.353474 19.529 5.26137 -163.605 4.09361 176.192
lowerback 3.8823 -0.504753 0.323103
upperback 15.3228 1.93874 0.811683
thorax 14.5936 1.92525 1.15218
lowerneck -12.2899 10.6962 1.39605
upperneck -18.9487 10.0869 -16.2223
head -2.66778 4.08832 -4.971
rclavicle -2.38542e-015 7.95139e-016
rhumerus -1395.48 -10.9903 1341.83
rradius 7.86157
rwrist 44.4614
rhand -25.5613 6.84929
rfingers 7.12502
rthumb 0.969419 -23.1283
lclavicle -2.38542e-015 7.95139e-016
lhumerus -1554.58 155.338 -1479.69
lradius 5.86266
lwrist -101.384
lhand -25.0782 0.686556
lfingers 7.12502
lthumb 1.43603 30.6615
rfemur -34.9065 -12.3733 14.4529
rtibia 27.4333
rfoot -6.31268 10.2788
rtoes -16.1083
lfemur -31.9351 18.3526 -27.5458
ltibia 25.3104
lfoot -4.2963 -12.0332
ltoes 1.40372
27
root 0.35706 19.5276 5.26397 -163.871 3.90935 176.172
lowerback 3.9922 -0.528457 0.293296
upperback 15.2685 1.89992 0.797671
thorax 14.4555 1.9034 1.14144
lowerneck -12.2902 10.797 1.50409
upperneck -18.7653 10.2682 -16.302
head -2.58381 4.18462 -4.99792
rclavicle 2.22639e-014 -2.06736e-014
rhumerus -1394.47 -8.90676 1343.46
rradius 8.37854
rwrist 44.7638
rhand -25.6214 7.2842
rfingers 7.12502
rthumb 0.911394 -22.6936
lclavicle 2.22639e-014 -2.06736e-014
lhumerus -1555 157.715 -1482.32
lradius 5.64856
lwrist -100.043
lhand -25.4742 0.582711
lfingers 7.12502
lthumb 1.0536 30.5599
rfemur -34.5276 -11.7834 14.1548
rtibia 27.4281
rfoot -6.52188 9.55386
rtoes -16.1372
lfemur -31.6074 18.0243 -27.3436
ltibia 25.3452
lfoot -4.31189 -11.7761
ltoes 1.54456
28
root 0.360722 19.5265 5.26352 -164.151 3.70722 176.173
lowerback 4.01138 -0.551614 0.293413
upperback 15.2442 1.86579 0.79845
thorax 14.4128 1.88761 1.13733
lowerneck -12.2764 10.8663 1.59381
upperneck -18.632 10.3953 -16.3557
head -2.52473 4.25341 -5.01848
rclavicle -1.19271e-014 -1.27222e-014
rhumerus -1393.34 -6.9392 1345.23
rradius 8.83463
rwrist 45.3123
rhand -25.5739 7.66955
rfingers 7.12502
rthumb 0.95733 -22.308
lclavicle -1.19271e-014 -1.27222e-014
lhumerus -1555.2 160.098 -1484.91
lradius 5.42348
lwrist -98.8624
lhand -25.9896 0.884052
lfingers 7.12502
lthumb 0.555744 30.8631
rfemur -34.1197 -11.0447 13.8328
rtibia 27.4522
rfoot -6.8578 8.66959
rtoes -16.2058
lfemur -31.2546 17.7353 -27.1215
ltibia 25.3745
lfoot -4.30385 -11.5566
ltoes 1.74865
